M48
;DRILL file generated by flatmaxx (categorized drills)
;FORMAT={-:-/ absolute / metric / decimal}
FMAT,2
METRIC
; #@! TA.AperFunction,Plated,PTH,ComponentDrill
T1C0.5000
%
G90
G05
T1
X2.6850Y24.3780
X3.9350Y33.3780
X4.9350Y33.3780
X5.9350Y33.3780
X5.9350Y23.6280
X6.5600Y24.2530
X6.9350Y33.3780
X6.9350Y29.1280
X6.9350Y28.1280
X7.1850Y24.6280
X7.1850Y20.8780
X7.6850Y33.8780
X8.1850Y34.6280
X8.1850Y17.3780
X8.4350Y35.6280
X8.4350Y19.8780
X9.4350Y35.6280
X9.9350Y15.8780
X10.4350Y35.6280
X10.4350Y34.3780
X10.9350Y33.8780
X11.4350Y35.6280
X11.4350Y33.3780
X11.4350Y22.9910
X12.4350Y35.6280
X12.4350Y27.3780
X12.4350Y22.8780
X12.4350Y15.8780
X13.1850Y21.6280
X13.4350Y35.6280
X14.4350Y35.6280
X14.9350Y25.8780
X14.9350Y24.6280
X15.4350Y35.6280
X15.4350Y13.1280
X15.7350Y21.3780
X15.9350Y25.8780
X15.9350Y24.6280
X16.4350Y34.8780
X16.4350Y33.8780
X16.4350Y32.8780
X16.4350Y31.8780
X16.4350Y30.8780
X16.9350Y25.8780
X16.9350Y24.8780
X16.9350Y13.3780
X18.4350Y21.1280
X18.6850Y27.8780
X18.9350Y32.8780
X18.9350Y31.8780
X18.9350Y30.8780
X18.9350Y29.8780
X19.4350Y27.8780
X19.4350Y13.6280
X19.6850Y33.3780
X20.1850Y27.8780
X20.4350Y29.3780
X20.4350Y28.6280
X20.9350Y35.6280
X20.9350Y34.6280
X20.9350Y33.6280
X21.3100Y9.7530
X21.9350Y35.6280
X21.9390Y16.6230
X22.4350Y15.9570
X22.4350Y14.8780
X22.6850Y34.1280
X22.9350Y35.6280
X22.9350Y5.6280
X23.9350Y35.6280
X24.9350Y35.6280
X24.9350Y34.1280
X25.9350Y35.6280
X26.9350Y35.6280
X26.9350Y32.6280
X26.9350Y27.8780
X27.4350Y13.8780
X27.9350Y35.6280
X28.4350Y33.6280
X28.4350Y32.6280
X28.4350Y31.6280
X28.4350Y26.1280
X28.9350Y35.6280
X29.6850Y31.1280
X29.9350Y35.6280
X30.1850Y20.6280
X30.1850Y18.3780
X30.9350Y35.6280
X31.4350Y16.6280
X31.9350Y35.6280
X31.9350Y31.1280
X32.4350Y22.6280
X32.9350Y35.6280
X33.1850Y14.8780
X33.3470Y24.8780
X33.6850Y29.8780
X33.9350Y35.6280
X33.9350Y15.6280
X34.6850Y16.3780
X34.6850Y15.1280
X34.9350Y35.6280
X35.6850Y34.6280
X35.6850Y33.6280
X35.9350Y35.6280
X35.9350Y32.6280
X36.1850Y13.6280
X36.6850Y31.8780
X36.7110Y20.6550
X37.4350Y21.3780
X37.6850Y31.8780
X37.6850Y30.1280
X38.4350Y13.6280
X38.6850Y31.8780
X39.6850Y31.8780
X39.6850Y22.8780
X39.9350Y15.1280
X40.6850Y31.8780
X40.9350Y26.8780
X40.9350Y17.8780
X40.9850Y23.1280
X41.4350Y23.8780
X41.6850Y26.8780
X42.1850Y23.8780
X42.9350Y17.8780
T0
M30
